<svg id="Calque_1" data-name="Calque 1" xmlns="http://www.w3.org/2000/svg" width="545.77" height="192.91" viewBox="0 0 545.77 192.91">
  <defs>
    <style>
      .cls-1 {
        fill: none;
      }

      .cls-2 {
        fill: #c03739;
      }

      .cls-3 {
        fill: #5a774b;
      }

      .cls-4 {
        fill: #fdfdfc;
      }
    </style>
  </defs>
  <title>logo</title>
  <g>
    <path class="cls-1" d="M688.05,637V444.09h545.77V637Zm106-96.36c-3.72-2.74-7.75-.58-11.59-.54-8.54.09-17.07.78-25.49,1.23-.46,2.42,2.5,2.68,1.81,5.19-10.61,3-21.25,3-31.44-2.35-8.4-4.4-11.91-11.45-10.28-19.6,1.8-9,8-14.65,17.35-15.73,12.77-1.46,21.77,3.94,27.44,15.41a20.45,20.45,0,0,0-7-13.7c-6.36-5.68-14.07-6.41-22-5.6-10.81,1.1-19.28,6.09-23.46,16.52-3.41,8.53.42,21,8.45,27.78,12.21,10.34,26.8,11.18,41.73,9.32,4.52-.56,8.52-1.12,12.14,3.09L794,540.5c4.95,2.94,9.77,16.4,7.95,22.31-1.93.28-3.45-.91-5.16-1.45-10.08-3.17-19.56-3.1-27.83,4.73C755.32,579,756.22,601,770.85,610.23c11.87,7.49,24.11,8,35.54,0,11.75-8.24,17-20.28,16.43-34.85a5.63,5.63,0,0,0-4.63,3c-.78,10.79-3.49,18.29-9.16,25.4-6.66,8.35-18.74,10.77-30.46,6.1-8.91-3.55-14.74-13.74-13.68-23.9,1.42-13.55,14.14-21.11,25.82-15.07-1.58,0-2.91,0-4.24,0-7.31.13-12.79,3.17-15.8,10-2.85,6.53-1.63,12.37,3.32,17.35,5.22,5.25,11.19,8.34,18.87,5.73,8.64-2.94,15.26-15.28,13.12-25-1.16.22-2.32,1.5-4,.06,2-9.27,3.54-18.9,7-29.25,5.12,7.31,7.59,14.83,13.31,21.49-2.39-15.07-10.05-25.62-21.65-33.15-10.38-6.74-12.37-17.21-14.8-27.89,2.87-.89,4.72.53,6.72,1.17,10.89,3.5,20.84,3,29.39-5.83,10.92-11.22,11.14-31.14.31-40.51-19.12-16.54-47.47-7.53-54,19.52-5,20.62,2.86,37.09,19.9,49.45C790.4,535.83,794,536.7,794.06,540.64Zm35.58-13c12.89-1.76,24,.16,33.35,8.35,6.25,5.45,8,13.14,4.94,20.27a19.57,19.57,0,0,1-18.69,12.08C836,568.2,828,561.73,824,548.34c-.47,5.86.73,10.06,3.6,14,4.75,6.53,11.44,9.31,19,10.24C857,573.86,866.33,571,873,562.85s6.37-17.33,1.87-26.57c-5.79-11.89-16.73-16.37-28.47-19.26-7.06-1.74-14.41-2-21.75-2.05l-4.43-4.21-25.7,16.88c5,2.23,28.5,4.86,38.18,4.29ZM1181.41,577c-1-8.14-2.68-15.84-1-24.65,6.64,7.77,9.21,16.33,12.15,24.52,2.37.09,4.35.58,7-.53a141,141,0,0,0-.49-32.89c-2.51-1.64-4.48-1.75-6.47-.43.71,5.68,2.88,11.13,1.61,17.88-3.87-5.75-7.24-10.74-10.6-15.74-2.11-3.15-4.66-4.07-8.33-1.46-1.67,10.94-2.18,22,0,33.29Zm-60.5-53.22c1.07-1.78,2.59-3.14,5.27-2.75,4,3.47,4.28,8.9,6.27,13.5,2.41.16,4.52.61,6.49-.54.24-5,.24-5-7-16.39.13-1.57,1.6-2.05,2.51-2.93,2.81-2.72,4.56-5.83,3.09-9.7s-4.86-5.13-8.84-5.09c-4.31,0-8.62,0-12.8,0-3,5.3-3.5,28-.86,34.62,2.18.48,4.4.87,6.84-.16C1121.84,530.86,1120.32,527.53,1120.91,523.82Zm-116.07,27.31c-2.66-7.52-9.29-9.45-23.3-6.37a86,86,0,0,0-.08,34h6.7c1.45-4.75-4.74-11.67,4.16-14,4.54,3.83,5,9.17,6.63,14.35,2.3-.76,4.64.73,6.92-1,.71-7-4.14-11.48-7.62-16.74C1001.56,558.81,1004.48,556.11,1004.84,551.12ZM1171,533.93c.44-7.32-4.15-11.71-7.87-16.82,1.16-1,2.29-2,3.36-3,2.53-2.44,4.05-5.21,2.9-8.87s-3.86-5-7.52-5.27a94.52,94.52,0,0,0-15.5.22c-1.88,11.41-2.33,22.59,0,34.52,2.8-1,5.11.27,7.29-1-2.25-11.52-1.93-12.39,4.63-12.5,3.32,3.53,4.38,8.13,5,12.79ZM994,501.17a97.92,97.92,0,0,0-.9,35.77c2.83-2.12,5.19,0,7-1.94-.44-4.78-3.6-9.84.79-14.07,3-2.91,6.88-2.6,10.57-1.42,1.74,5.59-.53,10.57-1.59,15.71a13.85,13.85,0,0,0,7.59-.46c2.35-10.92,1-26.29-2.9-33.76a16.66,16.66,0,0,0-6.64.34c.76,4,4.44,7.08,2.69,11.4l-11.18,1c-1.71-4.65,1.37-8.32,1.7-12.6ZM920.7,556.52l-11.17,1.07c-1.65-4.78,1.59-8.66,2-13.12h-7.31c-2.07,11.68-3.33,23.05-1,34.63,2.52.39,4.76.64,6.94-.3-1.81-14.44.74-18.28,11-15.92,3,5.28-.43,10.53-1.14,15.94h8c.25-11.87,1.72-23.52-3.21-34.36a13.68,13.68,0,0,0-6.58,0C918.38,548.56,922.12,551.87,920.7,556.52Zm205.95-14.32c-12.28,5.79-17.83,24.38-13,34.84,2.43,1.41,5,1.11,7.8.66-.49-3.72-5-7.41-.76-10.93,3.51-2.88,7.88-2.85,12.2-1.32,2.25,4.69-1.85,8.09-2.44,12.27,2.71,0,5.15.73,7.44-.24C1143.24,565.11,1137.75,547.73,1126.65,542.19Zm-171.26,1.6c-11.4,4.48-17.9,21.1-13.44,34.67,2.47.92,5.05.6,7.81.31-.72-3.62-4.46-7.18-1-10.6,3.56-3.58,8.26-2,12.46-1.86,2.18,4.94-1.44,8.3-2.11,12.47h7.75C970.54,566.2,966.08,547.12,955.38,543.79Zm91.66,6.27a8,8,0,0,1,4.57-2,12.51,12.51,0,0,1,7,3.68c1.93-1.29,3.29-2.62,3.28-4.84-1.41-2.18-3.66-2.93-5.84-3.61-6.81-2.14-13.66,1-15.47,7-1.58,5.24,1.7,9.58,8.91,11.94a31.59,31.59,0,0,1,5,2.13c2.1,1.12,3.29,2.79,2.21,5.49-2.27,2.92-5.6,2.31-8.64,1.89-4.11-.57-5.14-4.36-6.64-7.67-3.44,5.33-2.56,9.75,2.35,12.91a14.58,14.58,0,0,0,16.73-1.12A9.61,9.61,0,0,0,1059,559.7a67.3,67.3,0,0,0-8.58-3.78C1047.71,554.9,1046.21,553.38,1047,550.06Zm18.83-14c10.8-5.75,15.74-21.07,11.39-35-2.2-1.41-4.58-.79-7-.61,4.46,13.43,2.6,23.65-4.9,26.54-3.92-3-5.23-7.38-6-12-.84-4.8,1.15-9.35,1.66-14a9.6,9.6,0,0,0-7.41.09C1049.67,515.22,1054.8,529.95,1065.87,536ZM1026,535h22.78c-.82-3-1.39-5.61-4.09-7.29a12.67,12.67,0,0,1-10.71,1.78c-3-2.43-1.89-5.48-1.75-8,2.29-4.23,6.3-1.7,9.29-3,.64-2,2.29-3.81,1.92-6.07-3.76-1.62-6.89,1.51-10.23.88-1.73-2.14-.45-3.93,0-5.62,3.85-3.69,8-1.7,12-.83,1.21-2,2.47-3.64,2.75-6.28h-19.17C1026,511.92,1025.39,523.32,1026,535Zm78.23-8c-2.87,2.38-6.4,2.62-9.79,2.4-3.67-2-4.28-4.85-3-8.16,1.7-4.33,5.47-3.22,9-2.78l2.6-6.53c-3.88-1.61-6.91,1.13-10.2,1-2.46-1.78-1.61-4.15-.37-5.68,3.39-4.17,7.88-1.62,12.07-1.12a12.29,12.29,0,0,0,2.3-5.92H1088a103.58,103.58,0,0,0-2.75,34.44h23C1106.93,531.85,1107,529,1104.26,527Zm-178.7,8.87c-.2-3-1.67-5.12-3.23-7.38-3.58,1.35-6.92,3.72-11.16,1.82a6.48,6.48,0,0,1-1.53-8.34c1.75-3.47,4.87-3.47,8-2,1.44-2.24,2.55-4.25,2.74-6.72a8,8,0,0,0-4.88-.21c-1.72.34-3.29,1.58-5.16.85-1.76-6.73,1.75-8.75,11.51-6.65a6.47,6.47,0,0,0,2.69-5.7H905.91a102.87,102.87,0,0,0-2.63,34.29Zm174.6,10.52c-2.28-2.3-4.61-3.9-7.84-4-11.08-.5-19.67,11.13-17,23.11,1.76,7.84,6.29,12.57,12.84,13.4,7.9,1,14.27-5.73,11.59-12.23-4.24,5.16-9.12,6.12-13.72,2.7s-5.64-12.46-1.72-17.68c2.39-3.18,5.66-4.47,9.57-3,1.48.72,1.15,2.92,2.92,3.3C1100.12,550.75,1100.12,550.75,1100.16,546.41ZM984.7,503.82c-5.71-4.1-11.6-4.54-16.34-1.43-6.36,4.18-9.93,13.65-8.11,21.54,1.58,6.84,6.09,11.5,12,12.33,7,1,15.84-4,12.38-11.89-3.75,4.87-8,6-12.75,3.45-4.32-2.3-6.38-9.37-4.41-15.12,1.71-5,5.72-7.12,11.27-6,1.64.54.93,3.06,3.14,3.17C985.46,509.39,985.38,506.86,984.7,503.82Zm206.21,30.07c-1.32-8.26,2.52-14.15,6.67-20,3-4.19,5.31-8.69,4.05-14.18-2.21-1.18-4.22-.68-6.52-.13.55,6.3-.53,11.81-6,15.44-3.12-1.55-3.91-4.33-5.08-6.86-1.26-2.73-.48-5.77-1-8.58-2.73-.84-5.07-.94-7.14.74-.67,7.6.3,9.77,9.21,20.7.33,4.26-3.87,8.16-1.33,12.89ZM956.55,504.18c-8.65-5.36-17.1-3.58-25.45-1.86-1.52,2.88-2.45,5.46-1.84,8.62,3.42-1.06,5.84-4.68,10.21-3.66-.64,9.61-3.28,19.07-.22,28.76,2.68-.15,5.13.46,7.74-.48-2.36-9.7-3.62-19.37-.58-29,3.4-.19,5.13,2.14,7.6,2.55Zm197.29,37.38a102.76,102.76,0,0,0-.72,35.13c2.89,1.39,5.26,1,8.06.26-2.8-11.4-3.2-22.76-.16-33.69C1158.57,541.36,1156.66,543.55,1153.84,541.56ZM977.09,490.83V470.66c-4.13-1.06-7.74-1.76-11.55.55v20.13c1.74.39,3,.42,4.25-.29,1.14-1,.15-3,1.92-4l1.18,4.13C974.44,491.48,975.72,491.93,977.09,490.83Zm24.7.35c1.18-5.45-.5-10.88.9-16l1.55,0V491.1c2.2.63,3.63.86,5.36-.61-.34-6.54,1.07-13.46-1-20.25a21.24,21.24,0,0,0-10.72.2c-1.71,6.8-.26,13.68-.54,20.24A4,4,0,0,0,1001.79,491.17Zm25.32,87c-2.51-11.46-3.26-22.67-.09-33.95a13.73,13.73,0,0,0-7,.18c-2.61,6.92-2.76,27-.29,33.73C1021.88,579.14,1024.11,579.15,1027.11,578.19Zm-87.66-92.27c1.84,1.48.33,3.88,1.63,5.6a4.84,4.84,0,0,0,5.11-.65c-2.75-6.52,1.53-14-1.86-20.54h-11v21.08a5.1,5.1,0,0,0,4,.35C939.33,489.91,937.34,487.39,939.45,485.92Zm259.92-17.4c-3.5-.74-6.86-1.28-10.35.68-.52,3.86-1.66,7.69.78,11.26,1.27,2,6.15-.92,5.21,4.28-2.37-2-4.5-2.18-6.53.2a4.41,4.41,0,0,0,1.31,4.2c2.87,1.2,6,.57,9.37.49,2.44-4.24,1.45-8.49.42-12.65-1.19-2.36-6,1.21-5.74-3.93,2.33.67,4.36,1.78,6.2.31C1200.82,471.72,1200.43,470.34,1199.37,468.53Zm-165.51,6c3.25,1.06,5.7,2.29,7.38-.29.07-1.64.11-3.13-1.4-4.43a12.45,12.45,0,0,0-9.77.6c-1.52,3.3-1,6.56-.59,9.83.48,3.68,6.57.77,6.58,5.67-2.42-.42-4.58-2.06-6.48-.09a4.59,4.59,0,0,0,1.3,5.07,25.6,25.6,0,0,0,9.43-.31,12.49,12.49,0,0,0,.61-11.23C1038.87,477.08,1035.75,478.44,1033.86,474.51Zm91.29-6.06v21.28c1.85.26,3.3.8,4.56-.22.92-1.8-.44-4,1.16-5.72,2.26,1.71.06,4.41,1.86,6,1.38.11,2.86.77,4.61-1-1.53-6.15.45-12.85-.84-19.49C1132.72,467.59,1129.15,468,1125.15,468.45Zm-21,.87a26.73,26.73,0,0,0-10.75.25c-1,6.43-.49,12.94-.33,19.41,4.12,2.77,7.85,2.71,12-.24C1104.9,482.32,1105.79,475.81,1104.15,469.32ZM1061,490.4a5.52,5.52,0,0,0,4.46.32c1.08-2.12-.28-4.52,1.24-6.36,1.78-.78,4.12.35,6-2.44-.25-3.53,1.39-7.89-.87-12.51a31.45,31.45,0,0,0-10.88,0Zm99.36-16.66v15.84c1.88.52,3.28.88,5.08-.42-.39-6.88-1.28-14.17,4.18-20.9-5.1,0-8.83-.56-12.13.21C1155.86,471.71,1157.65,473,1160.4,473.74ZM910.2,491.82v-15.9c2.42-1,4.47-2.32,3-5.62-3.62-.37-7.34-.69-10.93.22-1.31,3.25.76,4.54,3.12,5.51v15.79Zm-51.82,65.74c4.1-5.06,4.8-12.11,1.44-16.08-2.33-2.75-5.36-3.11-8.47-1.26-3.29,2-4.54,8.31-2.81,13.12S853.65,559,858.38,557.57ZM737,519.18c-4-1.07-7.48-.52-10,2.72a11,11,0,0,0-1.18,11.75c1.48,3.22,4.44,5.12,8.15,3.92,3.44-1.11,4.84-3.86,4.16-7.45-.77-4.07-3.81-4.51-7.19-4.3-.57,0-1.14.11-1.79.18-.15-2.74,1.61-3.45,3.2-4.31S736.64,523.17,737,519.18Zm14.94,0c-4.32-.1-10.05,6.42-11.59,13,2.56,1.43,5.52-.17,8,.88,1.46,1-.15,3.07,1.57,4l2.14-.24c-.11-2.6,1.35-4.31,3.8-5.6C750.08,528.52,753,523.5,751.91,519.22Zm86.39,20.64c-2.18,4.54-6.17,7.8-7.74,12.77,2.72,1.27,5.53.38,7.41.58,2.32,1.42.79,3.69,2.67,4.92,3.68-.3,1.1-6.21,5.11-5.73.08-2.48-2.44-.92-3-3.61v-8.55A4.89,4.89,0,0,0,838.3,539.85Zm141.24,49.64c.2,4.72-.68,9.3.79,14.09l7.59-.88c-1.07-4.72.84-9.25-1.27-13.73C984.24,589.22,982.13,588.27,979.54,589.49Zm49.62,12.34c1.44,1.36,2.29,3.44,5.2,3.08,4.71-4.37,2-10.07,2.52-15.14a6.54,6.54,0,0,0-7.55-.21C1028.64,593.61,1029,597.72,1029.16,601.83Zm-110.9,1.48c3,1.53,3.62-.21,4.29-2.39.55,2.7,1.6,3.94,4.23,2.33-.32-4.36.53-8.81-.89-13.37-2.35-.43-4.54-.95-7.2.43C917.73,594.46,918.25,598.86,918.26,603.31Zm211.38-2.06c2.47,1.83,2.94-.22,4-1,.83,1.43,1.81,2.12,3.94,1.12.23-4.24.48-8.73-.67-13.13-2.54-.54-4.64-.79-7,.23C1128.62,592.79,1129.19,597.17,1129.64,601.25Zm32.74-13.19c.17,4.94-1.06,9.48.75,13.9,2.48,0,4.64.52,7-.81a47.87,47.87,0,0,0-.46-13.09Zm-147.05,5.42c2.06-1.71,3.86.75,5.12-1.34.5-1.24,0-2.33-1.32-3.2-2.05,0-4.2-.36-6.6.82-.38,2.42-1.19,4.95.84,7.68.61,1.16,2.78-.13,3.64,1.7-1.38,1-3.29-.82-4.84,1.54,1.68,3.68,4.81,2.51,7.78,2a9.44,9.44,0,0,0-.24-8Zm186.55-5c-2.47-1.8-4.9-2.1-7.59-.36-.28,3.09-1.7,6.41,2.12,8.73-1.31,1.19-3.53,1.95-1.71,4.36a7.07,7.07,0,0,0,7-.39,14.21,14.21,0,0,0-.14-6.89c-1.2-1.75-3.72-.13-4.2-2.56C1199.63,592,1201.71,592.27,1201.88,588.52Zm-250.5,12.93c2,3.65,4.86,2.81,8.11,1.28.07-2.45.4-4.74.16-5.46-1.27-3.25-4.09-1.31-4.42-3.81,1.16-.61,2.63.59,3.74-.87.6-1.17.26-2.32-1-3.37-1.87-.17-3.83-.54-6,.61a9,9,0,0,0,0,7.41c.74,1.66,3.08.08,3.74,2C954.64,600.25,952.75,598.91,951.38,601.45Zm44.92-12.28a61.32,61.32,0,0,0,0,13.47c2.3,1.34,2.8-.68,3.92-1.51.84,1.23,1.49,2.8,3.34,1.62V589.17ZM1050,600c-2.72-4.18.74-9.34-4.26-12.23-1.2,7.87-.86,11.62,1.21,15.16,1.89.07,3.85.58,5.63-.48,1.53-9.17.87-13.29-2.58-14Zm-140-9.72c-2.71-1-5.19-1.3-7.81-.14v13.4c3.81,1.56,3.28-1.5,3.82-3.22,1.21-1,3.12-.44,4-2.23Zm236.29-1.8v13.4l1.61.37c3.08-2.62-.13-7.31,1.92-10.48,2.51,3.11-1.37,7.94,3.75,11.06a50.18,50.18,0,0,0-.12-14.56C1151.08,587.81,1148.88,587.49,1146.33,588.46ZM1065,598.83c0-1.65,2.43-1.54,2-3.52.74-1.56-2.47-1-1.74-2.9,1.85-.68,3.74-1.45,2.11-4.06a10.05,10.05,0,0,0-5.8.28c-.25,4.67-.44,9.37.87,14.85,2-1.43,4.42.8,5.62-1.78C1067.89,599.44,1065.57,600.54,1065,598.83Zm-123.74-10c-2.17,1.67-.71,4.16-2.66,5.14-1-1.48.45-4-2.62-4.83-1.89,2.15-.68,4.86-1.12,7.67,3.81.56.5,7,6.19,7.17C939.82,598.64,945.85,594.1,941.28,588.78ZM1181.79,592c2.52-1.71,2.52-1.71,2.92-4.21-1.9-.69-3.76-1-5.73.42.17,4.52-.65,9.1.46,13.8,2.15-.37,4.49,1,5.82-1.28.06-2.28-2.81-1.34-2.86-3.35C1184.91,595.62,1184.73,593.82,1181.79,592Zm-63.43,7.23c-1.91-4.27,1.25-9-3.94-11.79v14.9c4.56.54,4.56.54,6.61-1.63C1120.79,598.81,1118.71,599.72,1118.36,599.19Zm-24.53-4.69c-4.59-.79-4.59-.79-5.18,2.2C1092.74,597.38,1092.74,597.38,1093.84,594.5Z" transform="translate(-688.05 -444.09)"/>
    <path class="cls-2" d="M794.06,540.64c0-3.94-3.66-4.81-6-6.49-17-12.36-24.89-28.83-19.9-49.45,6.54-27.06,34.89-36.06,54-19.52,10.83,9.37,10.61,29.3-.31,40.51-8.56,8.79-18.51,9.33-29.39,5.83-2-.64-3.84-2.07-6.72-1.17,2.43,10.68,4.42,21.15,14.8,27.89,11.59,7.53,19.25,18.08,21.65,33.15-5.72-6.66-8.19-14.18-13.31-21.49-3.43,10.34-5,20-7,29.25,1.71,1.44,2.87.17,4-.06,2.15,9.68-4.48,22-13.12,25-7.69,2.62-13.66-.47-18.87-5.73-4.95-5-6.17-10.82-3.32-17.35,3-6.88,8.49-9.92,15.8-10,1.33,0,2.66,0,4.24,0-11.67-6-24.4,1.53-25.82,15.07-1.06,10.16,4.77,20.35,13.68,23.9,11.72,4.67,23.8,2.25,30.46-6.1,5.67-7.11,8.38-14.6,9.16-25.4a5.63,5.63,0,0,1,4.63-3c.53,14.57-4.68,26.61-16.43,34.85-11.43,8-23.67,7.5-35.54,0C756.22,601,755.32,579,769,566.09c8.27-7.83,17.75-7.9,27.83-4.73,1.71.54,3.24,1.73,5.16,1.45,1.82-5.91-3-19.37-7.95-22.31Zm6.13-39.48a20.48,20.48,0,0,0,14,1c12.08-4,16.41-21,8-32.24-6.62-8.84-15.62-11.83-26.41-10s-15.77,9.54-19.66,18.49c-2.27,5.22-2.39,11-3.45,16-1.28,1.73-3.5,1.63-4,4l13.19,23.44c3.87-10.24,5.25-19.92,7.24-29.22-1.9-1.06-3.07,1-4.62-.58-.45-8,1.82-15.15,8-20.79a16.33,16.33,0,0,1,20.22-1.52c8.29,5.46,11,12,8.26,20.31C818.46,497.73,811,501.92,800.19,501.16Z" transform="translate(-688.05 -444.09)"/>
    <path class="cls-3" d="M829.65,527.59l3,4.35c-9.68.57-33.21-2.06-38.18-4.29l25.7-16.88,4.43,4.21c7.34,0,14.7.32,21.75,2.05,11.74,2.89,22.68,7.37,28.47,19.26,4.5,9.23,4.75,18.48-1.87,26.57s-16,11-26.33,9.74c-7.57-.93-14.26-3.71-19-10.24-2.88-4-4.07-8.15-3.6-14,3.94,13.39,12,19.86,25.21,19.94a19.57,19.57,0,0,0,18.69-12.08c3-7.13,1.31-14.82-4.94-20.27C853.61,527.75,842.53,525.83,829.65,527.59Z" transform="translate(-688.05 -444.09)"/>
    <path class="cls-3" d="M794.06,540.64l0-.13-22.32,21.14c-3.62-4.21-7.62-3.66-12.14-3.09-14.93,1.87-29.52,1-41.73-9.32-8-6.79-11.86-19.25-8.45-27.78,4.18-10.43,12.65-15.42,23.46-16.52,7.92-.81,15.62-.09,22,5.6a20.45,20.45,0,0,1,7,13.7c-5.66-11.47-14.67-16.86-27.44-15.41-9.39,1.07-15.55,6.72-17.35,15.73-1.63,8.15,1.88,15.2,10.28,19.6,10.19,5.34,20.83,5.35,31.44,2.35.7-2.51-2.27-2.77-1.81-5.19,8.42-.44,17-1.14,25.49-1.23C786.31,540.06,790.34,537.9,794.06,540.64Z" transform="translate(-688.05 -444.09)"/>
    <path class="cls-3" d="M1181.41,577h-6.17c-2.15-11.25-1.64-22.36,0-33.29,3.67-2.61,6.22-1.69,8.33,1.46,3.35,5,6.72,10,10.6,15.74,1.27-6.75-.9-12.2-1.61-17.88,2-1.32,4-1.21,6.47.43a141,141,0,0,1,.49,32.89c-2.62,1.11-4.6.62-7,.53-2.94-8.19-5.51-16.75-12.15-24.52C1178.73,561.19,1180.46,568.9,1181.41,577Z" transform="translate(-688.05 -444.09)"/>
    <path class="cls-3" d="M1120.91,523.82c-.59,3.71.93,7,1,10.56-2.44,1-4.66.64-6.84.16-2.64-6.65-2.12-29.33.86-34.62,4.19,0,8.49,0,12.8,0,4,0,7.35,1.16,8.84,5.09s-.28,7-3.09,9.7c-.91.88-2.37,1.36-2.51,2.93,7.21,11.38,7.21,11.38,7,16.39-2,1.15-4.09.7-6.49.54-2-4.59-2.26-10-6.27-13.5C1123.5,520.67,1122,522,1120.91,523.82Zm9.81-17.39c-2.76-1.81-6-2.67-8.62-.37-2.8,2.49-2.35,6.14-1.38,9.55C1127.44,514.95,1131,511.7,1130.72,506.43Z" transform="translate(-688.05 -444.09)"/>
    <path class="cls-3" d="M1004.84,551.12c-.36,5-3.29,7.69-6.57,10.24,3.48,5.26,8.32,9.79,7.62,16.74-2.28,1.74-4.62.25-6.92,1-1.67-5.18-2.09-10.52-6.63-14.35-8.91,2.31-2.71,9.23-4.16,14h-6.7a86,86,0,0,1,.08-34C995.55,541.67,1002.19,543.6,1004.84,551.12Zm-16.2-1.49c-2,3.32-2.25,6.69-.89,10.68,4.58-1.37,8.14-3.34,10.05-7.23a4.45,4.45,0,0,0-1.59-3.92C993.88,548.61,991.46,548.21,988.64,549.63Z" transform="translate(-688.05 -444.09)"/>
    <path class="cls-3" d="M1171,533.93h-7.67c-.66-4.66-1.73-9.26-5-12.79-6.56.1-6.88,1-4.63,12.5-2.18,1.29-4.49,0-7.29,1-2.34-11.93-1.89-23.1,0-34.52a94.52,94.52,0,0,1,15.5-.22c3.66.32,6.36,1.57,7.52,5.27s-.37,6.44-2.9,8.87c-1.07,1-2.2,2-3.36,3C1166.85,522.22,1171.44,526.61,1171,533.93Zm-7.82-26.21c-2-3.37-4.68-3.55-7.41-3.34-4.35,3.31-5,6.76-2.34,11.39C1157.79,514.5,1161.51,512.48,1163.18,507.72Z" transform="translate(-688.05 -444.09)"/>
    <path class="cls-3" d="M994,501.17h7.19c-.34,4.28-3.41,7.95-1.7,12.6l11.18-1c1.75-4.32-1.93-7.38-2.69-11.4a16.66,16.66,0,0,1,6.64-.34c3.94,7.47,5.25,22.84,2.9,33.76a13.85,13.85,0,0,1-7.59.46c1.06-5.13,3.33-10.12,1.59-15.71-3.69-1.18-7.55-1.49-10.57,1.42-4.39,4.23-1.23,9.29-.79,14.07-1.85,2-4.22-.19-7,1.94A97.92,97.92,0,0,1,994,501.17Z" transform="translate(-688.05 -444.09)"/>
    <path class="cls-3" d="M920.7,556.52c1.42-4.65-2.32-8-2.55-12.07a13.68,13.68,0,0,1,6.58,0c4.93,10.84,3.45,22.49,3.21,34.36h-8c.71-5.41,4.14-10.66,1.14-15.94-10.24-2.35-12.79,1.49-11,15.92-2.18.94-4.42.69-6.94.3-2.31-11.57-1-22.94,1-34.63h7.31c-.37,4.46-3.62,8.34-2,13.12Z" transform="translate(-688.05 -444.09)"/>
    <path class="cls-3" d="M1126.65,542.19c11.1,5.54,16.6,22.92,11.2,35.28-2.29,1-4.73.27-7.44.24.59-4.17,4.69-7.58,2.44-12.27-4.32-1.53-8.69-1.56-12.2,1.32-4.28,3.52.27,7.21.76,10.93-2.77.45-5.37.75-7.8-.66C1108.82,566.58,1114.37,548,1126.65,542.19Zm.23,6.57c-4,2.8-6.4,6-6.91,11.13l12-1.51C1132,554.23,1130.15,551.44,1126.87,548.77Z" transform="translate(-688.05 -444.09)"/>
    <path class="cls-3" d="M955.38,543.79c10.7,3.33,15.15,22.41,11.43,35h-7.75c.67-4.17,4.29-7.53,2.11-12.47-4.21-.19-8.9-1.71-12.46,1.86-3.41,3.42.33,7,1,10.6-2.76.29-5.35.61-7.81-.31C937.49,564.89,944,548.28,955.38,543.79Zm-7.31,16.63c4.42,1.34,8.09-.83,12.28-.5-.07-4.2-1.3-7.16-4.73-9.35C951,552.21,949.59,556.17,948.07,560.42Z" transform="translate(-688.05 -444.09)"/>
    <path class="cls-3" d="M1047,550.06c-.83,3.32.67,4.84,3.35,5.86a67.3,67.3,0,0,1,8.58,3.78,9.61,9.61,0,0,1,1.53,16.15,14.58,14.58,0,0,1-16.73,1.12c-4.9-3.17-5.79-7.59-2.35-12.91,1.5,3.3,2.53,7.1,6.64,7.67,3,.42,6.37,1,8.64-1.89,1.08-2.7-.11-4.37-2.21-5.49a31.59,31.59,0,0,0-5-2.13c-7.22-2.36-10.5-6.71-8.91-11.94,1.8-6,8.66-9.11,15.47-7,2.17.68,4.43,1.43,5.84,3.61,0,2.22-1.35,3.55-3.28,4.84a12.51,12.51,0,0,0-7-3.68A8,8,0,0,0,1047,550.06Z" transform="translate(-688.05 -444.09)"/>
    <path class="cls-3" d="M1065.87,536c-11.07-6.07-16.2-20.8-12.32-35A9.6,9.6,0,0,1,1061,501c-.51,4.64-2.5,9.19-1.66,14,.81,4.62,2.11,9,6,12,7.49-2.89,9.36-13.11,4.9-26.54,2.45-.18,4.83-.79,7,.61C1081.61,515,1076.68,530.27,1065.87,536Z" transform="translate(-688.05 -444.09)"/>
    <path class="cls-3" d="M1026,535c-.64-11.7-.08-23.11,2.86-34.46h19.17c-.27,2.64-1.53,4.3-2.75,6.28-4-.86-8.18-2.86-12,.83-.48,1.69-1.77,3.48,0,5.62,3.35.63,6.47-2.5,10.23-.88.36,2.25-1.29,4-1.92,6.07-3,1.3-7-1.23-9.29,3-.14,2.55-1.25,5.61,1.75,8a12.67,12.67,0,0,0,10.71-1.78c2.7,1.68,3.27,4.26,4.09,7.29Z" transform="translate(-688.05 -444.09)"/>
    <path class="cls-3" d="M1104.26,527c2.74,2,2.68,4.83,4,7.65h-23a103.58,103.58,0,0,1,2.75-34.44h18.91a12.29,12.29,0,0,1-2.3,5.92c-4.19-.5-8.68-3-12.07,1.12-1.25,1.54-2.09,3.9.37,5.68,3.29.13,6.32-2.61,10.2-1l-2.6,6.53c-3.54-.44-7.31-1.55-9,2.78-1.3,3.31-.68,6.21,3,8.16C1097.86,529.64,1101.39,529.4,1104.26,527Z" transform="translate(-688.05 -444.09)"/>
    <path class="cls-3" d="M925.56,535.89H903.28a102.87,102.87,0,0,1,2.63-34.29h18.62a6.47,6.47,0,0,1-2.69,5.7c-9.76-2.11-13.27-.08-11.51,6.65,1.88.73,3.44-.51,5.16-.85a8,8,0,0,1,4.88.21c-.19,2.47-1.3,4.47-2.74,6.72-3.11-1.51-6.23-1.5-8,2a6.48,6.48,0,0,0,1.53,8.34c4.24,1.9,7.58-.47,11.16-1.82C923.89,530.77,925.36,532.89,925.56,535.89Z" transform="translate(-688.05 -444.09)"/>
    <path class="cls-3" d="M1100.16,546.41c0,4.34,0,4.34-3.34,5.51-1.77-.38-1.44-2.58-2.92-3.3-3.91-1.43-7.18-.14-9.57,3-3.92,5.22-2.92,14.23,1.72,17.68s9.48,2.46,13.72-2.7c2.68,6.51-3.69,13.23-11.59,12.23-6.55-.83-11.09-5.56-12.84-13.4-2.68-12,5.91-23.61,17-23.11C1095.56,542.51,1097.88,544.11,1100.16,546.41Z" transform="translate(-688.05 -444.09)"/>
    <path class="cls-3" d="M984.7,503.82c.68,3,.76,5.57-2.87,6-2.2-.11-1.49-2.62-3.14-3.17-5.55-1.08-9.56,1-11.27,6-2,5.75.09,12.82,4.41,15.12,4.8,2.55,9,1.41,12.75-3.45,3.46,7.94-5.34,12.89-12.38,11.89-5.87-.83-10.39-5.5-12-12.33-1.82-7.89,1.75-17.36,8.11-21.54C973.11,499.28,979,499.72,984.7,503.82Z" transform="translate(-688.05 -444.09)"/>
    <path class="cls-3" d="M1190.91,533.89h-7.14c-2.54-4.73,1.66-8.63,1.33-12.89-8.91-10.94-9.88-13.11-9.21-20.7,2.07-1.68,4.41-1.58,7.14-.74.53,2.81-.25,5.85,1,8.58,1.17,2.53,2,5.32,5.08,6.86,5.46-3.63,6.54-9.15,6-15.44,2.3-.55,4.31-1.05,6.52.13,1.25,5.5-1.1,10-4.05,14.18C1193.43,519.74,1189.58,525.63,1190.91,533.89Z" transform="translate(-688.05 -444.09)"/>
    <path class="cls-3" d="M956.55,504.18,954,509.07c-2.47-.41-4.19-2.74-7.6-2.55-3,9.66-1.77,19.33.58,29-2.61.94-5.06.33-7.74.48-3.06-9.69-.42-19.15.22-28.76-4.37-1-6.79,2.61-10.21,3.66-.62-3.16.32-5.74,1.84-8.62C939.45,500.61,947.91,498.82,956.55,504.18Z" transform="translate(-688.05 -444.09)"/>
    <path class="cls-3" d="M1153.84,541.56c2.82,2,4.73-.2,7.18,1.7-3,10.93-2.64,22.29.16,33.69-2.8.72-5.17,1.13-8.06-.26A102.76,102.76,0,0,1,1153.84,541.56Z" transform="translate(-688.05 -444.09)"/>
    <path class="cls-2" d="M977.09,490.83c-1.37,1.1-2.65.65-4.19.39l-1.18-4.13c-1.77,1-.78,2.94-1.92,4-1.23.71-2.51.68-4.25.29V471.22c3.81-2.31,7.42-1.62,11.55-.55Zm-5.69-16.45c-1.49,2.79-1.11,4.51,0,7.25C972.22,478.84,972.41,477.09,971.4,474.38Z" transform="translate(-688.05 -444.09)"/>
    <path class="cls-2" d="M1001.79,491.17a4,4,0,0,1-4.4-.49c.28-6.57-1.18-13.44.54-20.24a21.24,21.24,0,0,1,10.72-.2c2,6.79.61,13.71,1,20.25-1.73,1.47-3.16,1.24-5.36.61V475.23l-1.55,0C1001.28,480.29,1003,485.72,1001.79,491.17Z" transform="translate(-688.05 -444.09)"/>
    <path class="cls-3" d="M1027.11,578.19c-3,1-5.22,1-7.41,0-2.47-6.7-2.32-26.81.29-33.73a13.73,13.73,0,0,1,7-.18C1023.84,555.52,1024.6,566.73,1027.11,578.19Z" transform="translate(-688.05 -444.09)"/>
    <path class="cls-2" d="M939.45,485.92c-2.1,1.46-.12,4-2.07,5.83a5.1,5.1,0,0,1-4-.35V470.33h11c3.39,6.59-.89,14,1.86,20.54a4.84,4.84,0,0,1-5.11.65C939.78,489.8,941.29,487.41,939.45,485.92Zm-.12-5.79c1.19-3.07,1.19-3.07-.38-4.92C937.88,476.74,938,478.17,939.33,480.13Z" transform="translate(-688.05 -444.09)"/>
    <path class="cls-2" d="M1199.37,468.53c1.06,1.81,1.45,3.19.68,4.86-1.84,1.47-3.87.36-6.2-.31-.25,5.14,4.55,1.56,5.74,3.93,1,4.16,2,8.41-.42,12.65-3.38.07-6.5.71-9.37-.49a4.41,4.41,0,0,1-1.31-4.2c2-2.38,4.16-2.24,6.53-.2.94-5.2-3.94-2.3-5.21-4.28-2.44-3.57-1.3-7.41-.78-11.26C1192.5,467.25,1195.87,467.79,1199.37,468.53Z" transform="translate(-688.05 -444.09)"/>
    <path class="cls-2" d="M1033.86,474.51c1.89,3.92,5,2.57,7,4.83a12.49,12.49,0,0,1-.61,11.23,25.6,25.6,0,0,1-9.43.31,4.59,4.59,0,0,1-1.3-5.07c1.91-2,4.06-.33,6.48.09,0-4.91-6.1-2-6.58-5.67-.42-3.27-.93-6.53.59-9.83a12.45,12.45,0,0,1,9.77-.6c1.51,1.3,1.47,2.79,1.4,4.43C1039.56,476.8,1037.11,475.57,1033.86,474.51Z" transform="translate(-688.05 -444.09)"/>
    <path class="cls-2" d="M1125.15,468.45c4-.44,7.57-.86,11.35.9,1.29,6.63-.68,13.34.84,19.49-1.75,1.76-3.23,1.1-4.61,1-1.8-1.61.4-4.32-1.86-6-1.61,1.71-.25,3.92-1.16,5.72-1.26,1-2.71.47-4.56.22Zm5.76,10.55c1.33-2.2,1.2-3.64-.34-6C1130,475.37,1129.58,476.79,1130.91,479Z" transform="translate(-688.05 -444.09)"/>
    <path class="cls-2" d="M1104.15,469.32c1.64,6.49.75,13,.94,19.42-4.18,3-7.91,3-12,.24-.16-6.47-.67-13,.33-19.41A26.73,26.73,0,0,1,1104.15,469.32Zm-5.2,4.88a17.19,17.19,0,0,0,.15,11C1099.78,481.53,1100.44,477.86,1099,474.2Z" transform="translate(-688.05 -444.09)"/>
    <path class="cls-2" d="M1061,490.4v-21a31.45,31.45,0,0,1,10.88,0c2.26,4.62.62,9,.87,12.51-1.92,2.79-4.27,1.65-6,2.44-1.52,1.84-.16,4.25-1.24,6.36A5.52,5.52,0,0,1,1061,490.4Zm5.95-11.12c1.07-2.24,1.43-3.59-.31-5.23C1065.8,475.71,1065.87,477.06,1067,479.28Z" transform="translate(-688.05 -444.09)"/>
    <path class="cls-2" d="M1160.4,473.74c-2.75-.77-4.54-2-2.88-5.27,3.3-.77,7-.19,12.13-.21-5.46,6.74-4.57,14-4.18,20.9-1.8,1.3-3.21.94-5.08.42Z" transform="translate(-688.05 -444.09)"/>
    <path class="cls-2" d="M910.2,491.82h-4.77V476c-2.36-1-4.43-2.25-3.12-5.51,3.59-.91,7.31-.59,10.93-.22,1.44,3.3-.61,4.61-3,5.62Z" transform="translate(-688.05 -444.09)"/>
    <path class="cls-3" d="M858.38,557.57c-4.73,1.39-8.13.56-9.84-4.21s-.48-11.16,2.81-13.12c3.11-1.85,6.14-1.49,8.47,1.26C863.18,545.46,862.48,552.51,858.38,557.57Zm-5.9-14.48a11.92,11.92,0,0,0,.38,11.64c2.72,1.13,4.65.34,5.1-2.26.61-3.53,1.21-7.24-1.63-10.21C855,542.06,853.87,541.84,852.48,543.09Z" transform="translate(-688.05 -444.09)"/>
    <path class="cls-3" d="M737,519.18c-.33,4-3.14,1.72-4.63,2.52s-3.34,1.57-3.2,4.31c.65-.07,1.22-.14,1.79-.18,3.38-.21,6.42.23,7.19,4.3.68,3.59-.72,6.34-4.16,7.45-3.72,1.2-6.67-.69-8.15-3.92A11,11,0,0,1,727,521.9C729.49,518.66,732.93,518.11,737,519.18Zm-9,10.62c.51,2.81,1.61,4.76,4.78,5,3.13-2,3-4.14.61-6.57A5.41,5.41,0,0,0,728,529.8Z" transform="translate(-688.05 -444.09)"/>
    <path class="cls-3" d="M751.91,519.22c1.1,4.28-1.83,9.3,3.93,12.09-2.46,1.28-3.92,3-3.8,5.6l-2.14.24c-1.72-.94-.1-3-1.57-4-2.49-1.05-5.44.55-8-.88C741.86,525.63,747.59,519.12,751.91,519.22ZM748.83,523,744,529.7h4.81Z" transform="translate(-688.05 -444.09)"/>
    <path class="cls-3" d="M838.3,539.85a4.89,4.89,0,0,1,4.43.38v8.55c.58,2.69,3.1,1.13,3,3.61-4-.48-1.43,5.43-5.11,5.73-1.89-1.22-.36-3.5-2.67-4.92-1.88-.2-4.69.69-7.41-.58C832.13,547.65,836.12,544.39,838.3,539.85Zm.74,3.66-4.72,7.14h4.62A11.51,11.51,0,0,0,839,543.51Z" transform="translate(-688.05 -444.09)"/>
    <path class="cls-2" d="M979.54,589.49c2.59-1.22,4.7-.27,7.11-.52,2.12,4.48.2,9,1.27,13.73l-7.59.88C978.86,598.79,979.74,594.21,979.54,589.49Z" transform="translate(-688.05 -444.09)"/>
    <path class="cls-2" d="M1029.16,601.83c-.18-4.11-.52-8.22.16-12.26a6.54,6.54,0,0,1,7.55.21c-.51,5.06,2.19,10.77-2.52,15.14C1031.45,605.27,1030.61,603.18,1029.16,601.83Z" transform="translate(-688.05 -444.09)"/>
    <path class="cls-2" d="M918.26,603.31c0-4.45-.53-8.85.43-13,2.66-1.38,4.85-.86,7.2-.43,1.42,4.56.57,9,.89,13.37-2.63,1.61-3.68.37-4.23-2.33C921.88,603.11,921.22,604.84,918.26,603.31Zm4.22-6.48c.77-1.31.86-2.22-.16-3A2.74,2.74,0,0,0,922.48,596.83Z" transform="translate(-688.05 -444.09)"/>
    <path class="cls-2" d="M1129.64,601.25c-.45-4.08-1-8.46.22-12.75,2.38-1,4.48-.77,7-.23,1.15,4.4.9,8.89.67,13.13-2.13,1-3.12.32-3.94-1.12C1132.58,601,1132.11,603.08,1129.64,601.25Zm3.72-9.3c-.68,1-.83,1.84.31,2.58A2.07,2.07,0,0,0,1133.36,592Z" transform="translate(-688.05 -444.09)"/>
    <path class="cls-2" d="M1162.38,588.06h7.33a47.87,47.87,0,0,1,.46,13.09c-2.41,1.33-4.56.79-7,.81C1161.32,597.54,1162.55,593,1162.38,588.06Zm3.83,10.14a5.29,5.29,0,0,0,0-5.48Z" transform="translate(-688.05 -444.09)"/>
    <path class="cls-2" d="M1015.33,593.48l4.38,1.23a9.44,9.44,0,0,1,.24,8c-3,.46-6.1,1.63-7.78-2,1.55-2.35,3.46-.55,4.84-1.54-.86-1.83-3-.54-3.64-1.7-2-2.73-1.21-5.26-.84-7.68,2.4-1.18,4.54-.8,6.6-.82,1.36.87,1.82,2,1.32,3.2C1019.19,594.23,1017.39,591.77,1015.33,593.48Z" transform="translate(-688.05 -444.09)"/>
    <path class="cls-2" d="M1201.88,588.52c-.16,3.75-2.25,3.44-4.55,2.89.48,2.43,3,.81,4.2,2.56a14.21,14.21,0,0,1,.14,6.89,7.07,7.07,0,0,1-7,.39c-1.81-2.41.41-3.17,1.71-4.36-3.81-2.33-2.4-5.65-2.12-8.73C1197,586.42,1199.41,586.72,1201.88,588.52Z" transform="translate(-688.05 -444.09)"/>
    <path class="cls-2" d="M951.38,601.45c1.37-2.54,3.27-1.2,4.37-2.21-.67-1.92-3-.34-3.74-2a9,9,0,0,1,0-7.41c2.16-1.15,4.12-.78,6-.61,1.26,1,1.6,2.2,1,3.37-1.11,1.46-2.58.26-3.74.87.33,2.5,3.15.56,4.42,3.81.24.72-.09,3-.16,5.46C956.24,604.26,953.4,605.1,951.38,601.45Z" transform="translate(-688.05 -444.09)"/>
    <path class="cls-2" d="M996.3,589.17h7.27v13.59c-1.85,1.17-2.5-.4-3.34-1.62-1.12.83-1.62,2.85-3.92,1.51A61.32,61.32,0,0,1,996.3,589.17Z" transform="translate(-688.05 -444.09)"/>
    <path class="cls-2" d="M1050,600V588.42c3.45.74,4.11,4.86,2.58,14-1.78,1.05-3.74.54-5.63.48-2.07-3.55-2.41-7.29-1.21-15.16C1050.77,590.64,1047.3,595.8,1050,600Z" transform="translate(-688.05 -444.09)"/>
    <path class="cls-2" d="M910,590.26v7.81c-.86,1.79-2.77,1.23-4,2.23-.54,1.73,0,4.78-3.82,3.22v-13.4C904.86,589,907.34,589.23,910,590.26Zm-3.9,5.27c.63-.77,1.2-1.49,0-1.84Z" transform="translate(-688.05 -444.09)"/>
    <path class="cls-2" d="M1146.33,588.46c2.54-1,4.75-.65,7.16-.2a50.18,50.18,0,0,1,.12,14.56c-5.12-3.12-1.24-8-3.75-11.06-2.06,3.17,1.15,7.86-1.92,10.48l-1.61-.37Z" transform="translate(-688.05 -444.09)"/>
    <path class="cls-2" d="M1065,598.83c.55,1.72,2.86.61,3,2.87-1.2,2.58-3.66.35-5.62,1.78-1.31-5.48-1.12-10.18-.87-14.85a10.05,10.05,0,0,1,5.8-.28c1.63,2.61-.26,3.38-2.11,4.06-.73,1.9,2.47,1.34,1.74,2.9C1067.46,597.28,1065.05,597.17,1065,598.83Z" transform="translate(-688.05 -444.09)"/>
    <path class="cls-2" d="M941.28,588.78c4.56,5.32-1.47,9.86-.22,15.14-5.68-.16-2.38-6.61-6.19-7.17.44-2.8-.77-5.51,1.12-7.67,3.07.88,1.62,3.35,2.62,4.83C940.57,592.94,939.12,590.46,941.28,588.78Z" transform="translate(-688.05 -444.09)"/>
    <path class="cls-2" d="M1181.79,592c2.94,1.87,3.12,3.67.61,5.38.05,2,2.93,1.07,2.86,3.35-1.34,2.29-3.67.91-5.82,1.28-1.11-4.7-.29-9.28-.46-13.8,2-1.43,3.83-1.11,5.73-.42C1184.31,590.24,1184.31,590.24,1181.79,592Z" transform="translate(-688.05 -444.09)"/>
    <path class="cls-2" d="M1118.36,599.19c.35.53,2.43-.37,2.68,1.47-2.06,2.17-2.06,2.17-6.61,1.64v-14.9C1119.61,590.21,1116.45,594.91,1118.36,599.19Z" transform="translate(-688.05 -444.09)"/>
    <path class="cls-2" d="M1093.84,594.5c-1.1,2.88-1.1,2.88-5.18,2.2C1089.24,593.7,1089.24,593.7,1093.84,594.5Z" transform="translate(-688.05 -444.09)"/>
    <path class="cls-1" d="M800.19,501.16c10.78.76,18.28-3.43,20.78-11.12,2.7-8.29,0-14.85-8.26-20.31a16.33,16.33,0,0,0-20.22,1.52c-6.13,5.64-8.41,12.83-8,20.79,1.55,1.57,2.72-.48,4.62.58-2,9.3-3.37,19-7.24,29.22l-13.19-23.44c.52-2.37,2.74-2.27,4-4,1.05-5,1.17-10.77,3.45-16,3.9-9,9-16.69,19.66-18.49s19.79,1.17,26.41,10c8.38,11.19,4,28.21-8,32.24A20.48,20.48,0,0,1,800.19,501.16Z" transform="translate(-688.05 -444.09)"/>
    <path class="cls-1" d="M1133.2,506.8c.24,5.33-3.32,8.61-10.1,9.27-1-3.44-1.44-7.13,1.39-9.65C1127.1,504.1,1130.41,505,1133.2,506.8Z" transform="translate(-688.05 -444.09)"/>
    <path class="cls-1" d="M989.56,550.48c2.84-1.44,5.29-1,7.66-.48a4.5,4.5,0,0,1,1.61,4c-1.93,3.94-5.53,5.93-10.16,7.31C987.29,557.24,987.55,553.84,989.56,550.48Z" transform="translate(-688.05 -444.09)"/>
    <path class="cls-1" d="M1166,508.1c-1.7,4.81-5.45,6.85-9.85,8.15-2.74-4.69-2-8.17,2.36-11.52C1161.29,504.51,1164,504.69,1166,508.1Z" transform="translate(-688.05 -444.09)"/>
    <path class="cls-1" d="M1129.31,549.6c3.31,2.71,5.16,5.53,5.18,9.74l-12.17,1.52C1122.84,555.69,1125.27,552.43,1129.31,549.6Z" transform="translate(-688.05 -444.09)"/>
    <path class="cls-1" d="M948.54,561.39c1.54-4.3,2.91-8.3,7.63-10,3.47,2.21,4.72,5.2,4.78,9.45C956.71,560.54,953,562.74,948.54,561.39Z" transform="translate(-688.05 -444.09)"/>
    <path class="cls-1" d="M972.12,474.4c1,2.74.83,4.51,0,7.33C971,479,970.61,477.22,972.12,474.4Z" transform="translate(-688.05 -444.09)"/>
    <path class="cls-1" d="M939.7,480.21c-1.3-2-1.47-3.43-.38-5C940.89,477.1,940.89,477.1,939.7,480.21Z" transform="translate(-688.05 -444.09)"/>
    <path class="cls-1" d="M1133.39,479.06c-1.35-2.23-.88-3.66-.34-6C1134.6,475.38,1134.74,476.83,1133.39,479.06Z" transform="translate(-688.05 -444.09)"/>
    <path class="cls-1" d="M1101.08,474.21c1.51,3.7.84,7.41.15,11.16A17.38,17.38,0,0,1,1101.08,474.21Z" transform="translate(-688.05 -444.09)"/>
    <path class="cls-1" d="M1068.77,479.35c-1.14-2.25-1.2-3.61-.31-5.28C1070.21,475.72,1069.85,477.08,1068.77,479.35Z" transform="translate(-688.05 -444.09)"/>
    <path class="cls-1" d="M852.48,543.09c1.39-1.25,2.55-1,3.86-.83,2.84,3,2.24,6.68,1.63,10.21-.45,2.6-2.38,3.39-5.1,2.26A11.92,11.92,0,0,1,852.48,543.09Z" transform="translate(-688.05 -444.09)"/>
    <path class="cls-1" d="M728,529.8a5.41,5.41,0,0,1,5.39-1.6c2.4,2.43,2.52,4.61-.61,6.57C729.57,534.56,728.47,532.62,728,529.8Z" transform="translate(-688.05 -444.09)"/>
    <path class="cls-1" d="M748.83,523v6.74H744Z" transform="translate(-688.05 -444.09)"/>
    <path class="cls-1" d="M839,543.51a11.51,11.51,0,0,1-.1,7.14h-4.62Z" transform="translate(-688.05 -444.09)"/>
    <path class="cls-1" d="M922.66,598.2a2.77,2.77,0,0,1-.16-3C923.54,596,923.44,596.87,922.66,598.2Z" transform="translate(-688.05 -444.09)"/>
    <path class="cls-1" d="M1135.86,593.27a2.09,2.09,0,0,1,.31,2.61C1135,595.12,1135.18,594.24,1135.86,593.27Z" transform="translate(-688.05 -444.09)"/>
    <path class="cls-4" d="M1166.21,598.2v-5.48A5.29,5.29,0,0,1,1166.21,598.2Z" transform="translate(-688.05 -444.09)"/>
    <path class="cls-1" d="M906.15,596.89V595C907.36,595.39,906.79,596.11,906.15,596.89Z" transform="translate(-688.05 -444.09)"/>
  </g>
</svg>
